<svg width="205" height="42" viewBox="0 0 205 42" fill="none" xmlns="http://www.w3.org/2000/svg">
<path d="M190.413 41.672C187.613 41.672 185.13 41.0373 182.965 39.768C180.837 38.4613 179.157 36.632 177.925 34.28C176.73 31.928 176.133 29.1653 176.133 25.992C176.133 22.8933 176.73 20.168 177.925 17.816C179.119 15.464 180.781 13.6347 182.909 12.328C185.037 10.984 187.501 10.312 190.301 10.312C193.063 10.312 195.49 10.9653 197.581 12.272C199.709 13.5787 201.37 15.4267 202.565 17.816C203.759 20.168 204.357 22.9493 204.357 26.16V28.064H183.973C184.159 30.304 184.831 32.0213 185.989 33.216C187.183 34.3733 188.714 34.952 190.581 34.952C191.962 34.952 193.138 34.6347 194.109 34C195.079 33.328 195.751 32.432 196.125 31.312L203.741 31.816C202.733 34.952 201.09 37.3787 198.813 39.096C196.573 40.8133 193.773 41.672 190.413 41.672ZM184.085 22.856H196.237C196.05 20.9147 195.415 19.4587 194.333 18.488C193.25 17.5173 191.887 17.032 190.245 17.032C188.527 17.032 187.127 17.536 186.045 18.544C184.999 19.5147 184.346 20.952 184.085 22.856Z" fill="black"/>
<path d="M151.011 41V10.984H156.611L157.227 18.824H156.723C157.021 16.2107 157.768 14.2507 158.963 12.944C160.195 11.6373 161.987 10.984 164.339 10.984H171.059V17.2H164.899C163.48 17.2 162.304 17.4427 161.371 17.928C160.437 18.4133 159.747 19.1413 159.299 20.112C158.851 21.0827 158.627 22.296 158.627 23.752V41H151.011ZM143.843 41V34.952H167.755V41H143.843ZM143.843 17.032V10.984H155.547V17.032H143.843Z" fill="black"/>
<path d="M131.489 41V32.544H140.337V41H131.489Z" fill="black"/>
<path d="M111.686 41V10.984H119.302V41H111.686ZM100.542 41V34.952H128.766V41H100.542ZM101.102 17.032V10.984H117.902V17.032H101.102ZM111.462 7.28799V0.679993H119.19V7.28799H111.462Z" fill="black"/>
<path d="M69.4283 41L63.9402 10.984H71.5003L74.2442 30.584L77.3802 15.352H82.5322L85.6683 30.584L88.4123 10.984H95.9723L90.4843 41H83.1483L79.9563 26.216L76.7643 41H69.4283Z" fill="black"/>
<path d="M33.0501 41V1.23999H45.8741C50.1674 1.23999 53.5088 2.32266 55.8981 4.48799C58.3248 6.61599 59.5381 9.50932 59.5381 13.168C59.5381 15.1467 59.1274 16.864 58.3061 18.32C57.4848 19.776 56.3648 20.9147 54.9461 21.736C53.5274 22.5573 51.9781 23.0427 50.2981 23.192L50.0741 22.464C53.0234 22.5013 55.2261 23.1173 56.6821 24.312C58.1381 25.4693 58.9781 27.336 59.2021 29.912L60.1541 41H52.0901L51.4181 32.04C51.3061 30.5467 51.0448 29.408 50.6341 28.624C50.2234 27.84 49.5888 27.2987 48.7301 27C47.8714 26.7013 46.7328 26.552 45.3141 26.552H41.0021V41H33.0501ZM41.0021 19.384H45.5941C47.4608 19.384 48.8794 18.8987 49.8501 17.928C50.8581 16.9573 51.3621 15.6133 51.3621 13.896C51.3621 12.1413 50.8581 10.7973 49.8501 9.86399C48.8794 8.89332 47.4608 8.40799 45.5941 8.40799H41.0021V19.384Z" fill="black"/>
<path d="M0.368011 41V1.23999H13.192C15.9547 1.23999 18.3813 1.78132 20.472 2.86399C22.5627 3.90932 24.1867 5.40266 25.344 7.34399C26.5387 9.24799 27.136 11.4693 27.136 14.008C27.136 16.584 26.5387 18.824 25.344 20.728C24.1867 22.632 22.5627 24.1253 20.472 25.208C18.3813 26.2533 15.9547 26.776 13.192 26.776H8.32001V41H0.368011ZM8.32001 19.552H12.352C14.592 19.552 16.2533 19.0853 17.336 18.152C18.4187 17.2187 18.96 15.8373 18.96 14.008C18.96 12.1787 18.4187 10.7973 17.336 9.86399C16.2533 8.89332 14.592 8.40799 12.352 8.40799H8.32001V19.552Z" fill="black"/>
</svg>
